<svg viewBox="0 0 80 80" fill="none" xmlns="http://www.w3.org/2000/svg">
  <path d="M40 70C55 70 65 58 65 42C65 26 55 15 40 15C25 15 15 26 15 42C15 58 25 70 40 70Z" fill="#3b82f6"/>
  <path d="M40 65C52 65 60 55 60 42C60 29 52 20 40 20C28 20 20 29 20 42C20 55 28 65 40 65Z" fill="#60a5fa"/>
  <circle cx="32" cy="25" r="4" fill="#facc15"/>
  <circle cx="45" cy="20" r="3.5" fill="#facc15"/>
  <circle cx="55" cy="28" r="4" fill="#facc15"/>
  <circle cx="60" cy="18" r="3" fill="#facc15"/>
  <path d="M32 25 L45 20 L55 28" stroke="#facc15" stroke-width="2.5" stroke-linecap="round" stroke-linejoin="round"/>
  <path d="M45 20 L60 18" stroke="#facc15" stroke-width="2.5" stroke-linecap="round"/>
  <ellipse cx="38" cy="45" rx="5" ry="3" fill="#1e3a5f"/>
  <circle cx="36" cy="44" r="1" fill="#ffffff"/>
</svg>
